<?xml version="1.0" encoding="UTF-8"?>
<!-- Generator: visioncortex VTracer 0.6.12 -->
<svg version="1.1" xmlns="http://www.w3.org/2000/svg" viewBox="0 0 440 550">
<path d="M0 0 C8.692864116007513 -0.937554977956832 13.928191199325084 2.0914732253969817 21.3125 6.4375 C22.490570618709313 7.113482608522313 23.669379325774855 7.788180340095012 24.848876953125 8.461669921875 C28.585931152738397 10.607659105194147 32.29601734627377 12.797521448712684 36 15 C36.30830749511719 15.183187866210938 36.30830749511719 15.183187866210938 37.8685302734375 16.1102294921875 C45.62145903503546 20.72435364134973 53.326198731656035 25.414257897419127 61.00390625 30.15234375 C63.570459502700146 31.735107359553023 66.14279253921643 33.3076184762428 68.71875 34.875 C105.88541556983404 57.6078801198842 148.04751698013013 89.31797735490962 160.34375 133.265625 C160.5603125 134.16796875 160.77687500000002 135.0703125 161 136 C161.18949218749998 136.7489453125 161.37898437500002 137.497890625 161.57421875 138.26953125 C163.95607670080648 153.54401480608942 161.45239530605926 169.11064543149925 158 184 C157.82871582031248 184.7416943359375 157.65743164062502 185.483388671875 157.48095703125 186.24755859375 C149.8729025353544 217.79796326116713 131.96296801989774 247.02736967846167 109.61328125 270.26953125 C107.40227372294476 272.57968709665414 105.3110145071978 274.93248845083787 103.25 277.375 C101.11547810316517 279.8406529786827 98.92116368348343 282.0125786776267 96.4375 284.125 C85.8447109046271 293.17813951755704 76.49760795433133 303.2348001350137 68.18896484375 314.4052734375 C67.10632334036654 315.8573913635987 66.00157021238005 317.292957313096 64.89453125 318.7265625 C50.76008906588743 337.40321065545413 40.318760552859914 359.1703250744111 35 382 C34.918869628906236 382.342890625 34.918869628906236 382.342890625 34.50830078125 384.078125 C29.57701600276218 406.06280017344415 30.72039478450594 430.02544679505377 35 452 C35.33871713516524 453.99909524872044 35.67435940981866 455.99873307199226 36 458 C24.135264064086158 453.16621869277583 16.87315354826228 437.0525344089545 12 426 C10.40129626945648 421.9338348573004 8.954278223821007 417.828668740077 7.5625 413.6875 C7.2326611328124955 412.710390625 6.902822265624991 411.73328125 6.56298828125 410.7265625 C-1.6116926930484397 385.3265082860795 2.608419417706301 361.99500126273995 14.442138671875 338.505859375 C21.936180824063882 324.22250164421393 31.34854152551415 310.94316105852016 40.3125 297.5625 C61.692662465009704 265.5884037786595 74.18968273363669 235.71376011634771 77 197 C62.09083127950149 208.00344234026153 47.712660283947315 219.5717158791869 33.62841796875 231.60986328125 C31.923460038546835 233.06534011102164 30.2138766984811 234.51526052567382 28.50390625 235.96484375 C24.983663133418474 238.9549036152285 21.485797696048877 241.96988194479692 18 245 C17.73493652343751 245.22937255859375 17.73493652343751 245.22937255859375 16.3935546875 246.39013671875 C-5.909796139678576 265.8059377366418 -22.23285306308793 291.55222859927005 -29.1875 320.4375 C-29.26500488281249 320.75908081054683 -29.26500488281249 320.75908081054683 -29.6572265625 322.386474609375 C-32.68541805981201 335.79397389131907 -33.26592950205094 348.70217925385106 -33.125 362.375 C-33.114939371902494 364.093744722724 -33.10581902917883 365.81249521610397 -33.09765625 367.53125 C-33.07591162243472 371.6876460224013 -33.0415560388156 375.8437567947661 -33 380 C-37.004909683227595 378.6650301055908 -38.185273826204394 376.11429745609325 -40.3125 372.6875 C-40.51117675781251 372.3706323242187 -40.51117675781251 372.3706323242187 -41.5166015625 370.76708984375 C-55.782936846644986 347.6925920866005 -61.25004493474276 321.5720321058644 -55.618408203125 294.653564453125 C-54.573450678098396 290.3809134121852 -53.335950664284695 286.1898416068648 -52 282 C-51.747827148437494 281.175322265625 -51.49565429687499 280.35064453125 -51.23583984375 279.5009765625 C-46.185505572116085 263.29351027798896 -38.50614564767068 248.28703837643985 -31.007537841796875 233.11587524414063 C-3.8946357036554105 178.18938148139293 -3.8946357036554105 178.18938148139293 -3.8671875 154.0859375 C-3.865898437499993 152.995390625 -3.8646093749999864 151.90484375 -3.86328125 150.78125 C-3.8671484375000205 149.6571875 -3.871015624999984 148.533125 -3.875 147.375 C-3.8711328124999795 146.243203125 -3.867265625000016 145.11140625 -3.86328125 143.9453125 C-3.864570312500007 142.85734375 -3.8658593750000136 141.769375 -3.8671875 140.6484375 C-3.8677514648437636 140.15432373046875 -3.8677514648437636 140.15432373046875 -3.87060546875 137.65380859375 C-3.9865214244414346 135.2764379553236 -4.321662643525286 133.27212701428917 -5 131 C-7.691812749292978 133.66234200165883 -10.377621468602484 136.33066667101753 -13.0625 139 C-13.814667968750001 139.7437890625 -14.566835937500002 140.487578125 -15.341796875 141.25390625 C-19.541422104529204 145.4353512837304 -23.56591658091321 149.69725713459715 -27.429443359375 154.19091796875 C-29.626167273282505 156.72126527203844 -31.943572827291632 159.13226155268308 -34.25 161.5625 C-64.11855015703354 193.92052820450292 -73.47017670166011 233.6452641143763 -72.2041015625 276.83544921875 C-71.36360208486346 296.362821245859 -68.58260923856237 316.01770736411305 -64.734375 335.16015625 C-64 339 -64 339 -64 342 C-64.66 342 -65.32 342 -66 342 C-67.27758789062506 340.4780273437499 -67.27758789062506 340.4780273437499 -68.72265625 338.3359375 C-69.256650390625 337.55065673828125 -69.79064453125 336.7653759765625 -70.3408203125 335.956298828125 C-70.90897460937501 335.10447021484373 -71.47712890625 334.2526416015625 -72.0625 333.375 C-72.647412109375 332.50705810546873 -73.23232421875 331.6391162109375 -73.8349609375 330.744873046875 C-75.56538179046397 328.1689596327223 -77.28448607372349 325.58585851780464 -79 323 C-79.4439208984375 322.3346826171875 -79.887841796875 321.669365234375 -80.34521484375 320.98388671875 C-103.31080619213125 286.46528284533713 -123.61866140001237 245.35453928006436 -115.4375 202.8125 C-110.65323173190757 179.99114277657847 -97.46307298919112 160.66082875027394 -81.69921875 143.88671875 C-79.18356627774142 141.196317625544 -76.74398058030815 138.45377997174472 -74.3125 135.6875 C-71.19662106623565 132.2211531369546 -67.98879616993027 129.11103291439903 -64.4296875 126.109375 C-61.03524820361744 123.1624341317579 -57.77558054078398 120.07783682977978 -54.5 117 C-50.068986369424294 112.84433874563896 -45.619670253137656 108.73437237525602 -41.01953125 104.765625 C-36.260229987971 100.60468850012165 -31.630485642690246 96.3028866584455 -27 92 C-26.31035156249999 91.3773828125 -25.620703125000006 90.754765625 -24.91015625 90.11328125 C-8.561564757562621 74.73247107212552 4.386740230363301 54.04569682070574 5.396728515625 31.21044921875 C5.557007803867464 23.257909204515933 4.146749276049405 16.049390642204976 1.97265625 8.42578125 C1.1760087478279786 5.619918360823858 0.5207508501552525 2.8668704698021235 0 0 Z " fill="#D84144" transform="translate(187,0)"/>
<path d="M0 0 C8.078054967773141 2.5779046383331092 15.619188740454547 2.2005805562518503 23.6875 -0.3125 C26.875 -0.125 26.875 -0.125 28.75390625 1.65234375 C30.908319313747143 4.321117662626079 32.88578404074275 7.081240294698091 34.875 9.875 C36.38163146534873 11.740724975224566 37.90253221570475 13.595017447373948 39.4375 15.4375 C42.289247599936175 18.92296928881092 45.135234731717816 22.4120695011934 47.9375 25.9375 C48.22173828125 26.293925781249982 48.22173828125 26.293925781249982 49.66015625 28.09765625 C50.875 29.875 50.875 29.875 50.875 31.875 C50.00359374999999 32.02195312499998 49.132187499999986 32.16890625000002 48.234375 32.3203125 C36.84951781244038 34.4642141781768 24.577055599640914 38.10499890288929 17.41015625 47.87109375 C14.144388094348642 53.09089492953137 12.6248365140832 57.73993844874167 13.875 63.875 C18.66392320233109 73.27547887864995 27.786399770815024 76.89092086596548 37.36328125 80.01171875 C62.72850985948588 87.21683648595746 91.99444789074388 87.19440020990038 115.9375 75 C120.9066129419158 72.11659720307097 124.2735918870755 69.077816225849 126.875 63.875 C127.64340146856301 56.48652434074029 126.01127812927183 52.11387329276698 121.9375 45.9375 C114.07046655242846 36.933064126273564 101.37580654926992 33.12508766839892 89.875 31.875 C91.18875382470526 28.0730760527469 92.74986542261581 25.607463605071246 95.5 22.6875 C102.1160269803371 15.472195213472958 108.0680029153906 7.749639985947567 113.875 -0.125 C114.73222656249999 0.01937500000002501 115.58945312499998 0.16374999999999318 116.47265625 0.3125 C117.04435546874998 0.40531249999997954 117.04435546874998 0.40531249999997954 119.9375 0.875 C121.06285156249999 1.060625000000016 122.18820312499997 1.246249999999975 123.34765625 1.4375 C131.2115056015333 2.4128611598800944 136.7252244323604 1.2011485737048133 144.001953125 -1.435546875 C151.49594910972462 -3.9911362838158198 156.86727633702617 -1.9378700488951495 163.8984375 0.81640625 C164.6446133422852 1.103539886474607 165.39078918457028 1.3906735229492142 166.15957641601563 1.6865081787109375 C168.52514423075712 2.5981912625672976 170.88757450232765 3.5177091067244532 173.25 4.4375 C174.8604757642235 5.059766072985212 176.47115092316437 5.681516357429928 178.08203125 6.302734375 C182.01535341713316 7.820863706887394 185.94588236217083 9.346023530155719 189.875 10.875 C188.93780290765682 11.993328090238663 187.99698826027287 13.108625108378476 187.0546875 14.22265625 C186.53116699218748 14.844064941406259 186.00764648437502 15.465473632812518 185.46826171875 16.105712890625 C183.474547541241 18.319694907849566 181.27158203499897 20.112807327206667 178.875 21.875 C180.20583002487962 25.86749007463885 182.82716628601952 27.486921982905642 186.0625 29.9375 C186.62775390625 30.384160156250005 187.1930078125 30.83082031250001 187.775390625 31.291015625 C194.8753679674714 36.73189173280451 201.77656492793068 37.30893168340356 210.5 37.9375 C212.55490951984643 38.092129385510816 214.609609974257 38.24956919856919 216.6640625 38.41015625 C217.56850097656252 38.47597900390622 218.47293945312498 38.54180175781249 219.40478515625 38.609619140625 C221.87500000000006 38.875 221.87500000000006 38.875 225.875 39.875 C225.875 48.78499999999997 225.875 57.69499999999999 225.875 66.875 C223.77125 67.18437499999999 221.66750000000002 67.49374999999998 219.5 67.8125 C218.86126953125 67.91304687499996 218.86126953125 67.91304687499996 215.62890625 68.421875 C211.875 68.875 211.875 68.875 208.96484375 68.703125 C206.04286943934932 68.54054219446147 204.4933886332464 68.5216232819277 201.875 69.875 C198.41806132123008 75.12580956072622 194.875 81.4771381221127 194.875 87.875 C196.8027343749999 89.50073242187489 196.8027343749999 89.50073242187489 199.46875 91.23046875 C200.4162109375 91.85244140625002 201.36367187500002 92.47441406250005 202.33984375 93.115234375 C202.84064453125 93.43653320312501 202.84064453125 93.43653320312501 205.375 95.0625 C206.3766015625 95.71669921875002 207.37820312500003 96.37089843750005 208.41015625 97.044921875 C210.89252441814972 98.66437158469762 213.3808271913569 100.27381434055064 215.875 101.875 C212.37413935888765 105.55133016158584 208.7184575939242 108.62121640107182 204.54296875 111.51953125 C203.94752761840823 111.93418136596677 203.3520864868164 112.34883148193353 202.7386016845703 112.77604675292969 C201.48599730638324 113.64375454692617 200.23121408952824 114.50832473173784 198.974365234375 115.369873046875 C197.06629064011355 116.68488755143755 195.1772094320707 118.02456202642702 193.287109375 119.365234375 C192.06098728255324 120.20991984593388 190.8338070375645 121.05307181443823 189.60546875 121.89453125 C189.32772361755372 122.09448951721197 189.32772361755372 122.09448951721197 187.9221649169922 123.10639953613281 C183.49853588118333 126.06928853756222 180.00926998031196 126.60322650220519 174.875 125.875 C171.46337890624983 124.92529296875 171.46337890624983 124.92529296875 168.1015625 123.6171875 C166.8518058105575 123.15168999290927 165.60179775844273 122.68686688156788 164.3515625 122.22265625 C162.42384396174435 121.49008400427249 160.49978307484923 120.74991487398074 158.580078125 119.99658203125 C156.6990421757581 119.2644797592958 154.80820394249417 118.56455222426325 152.9140625 117.8671875 C151.80240722656254 117.43776855468752 150.69075195312496 117.00834960937505 149.54541015625 116.56591796875 C142.7439999975236 115.2856205928556 136.73222187536925 117.51542210473474 130.330322265625 119.78076171875 C112.04258879779684 126.24391214816274 95.04390340735355 127.19241644328758 75.807861328125 127.02783203125 C72.4885010635937 127.00043279882323 69.1737532485545 127.0140162789769 65.854736328125 127.06884765625 C45.71043234149417 127.40135289117154 27.883837280197582 125.95687850608897 8.773666381835938 119.19949340820313 C1.535199751097906 116.66515775305947 -3.7898721373302635 114.91746642398095 -11.125 117.875 C-12.117014160156259 118.19227050781251 -13.109028320312518 118.50954101562502 -14.131103515625 118.83642578125 C-14.996628417968736 119.16110839843748 -15.862153320312501 119.48579101562495 -16.75390625 119.8203125 C-17.240205078125 119.99755859375 -17.240205078125 119.99755859375 -19.701171875 120.89453125 C-21.69804409606769 121.63372659148092 -23.692838851903275 122.37855756117267 -25.685546875 123.12890625 C-26.171201171874998 123.30486328124994 -26.171201171874998 123.30486328124994 -28.62890625 124.1953125 C-29.49330322265625 124.51773925781254 -30.357700195312503 124.84016601562496 -31.248291015625 125.17236328125 C-36.70557272652269 126.50530538122143 -40.520738945076516 126.66071113506598 -45.524169921875 124.210205078125 C-46.647780660463354 123.45762526813132 -47.757948046152876 122.68467412752784 -48.85546875 121.89453125 C-49.45378005981445 121.48466476440433 -50.0520913696289 121.07479827880866 -50.66853332519531 120.65251159667969 C-51.92394091001225 119.78765111212635 -53.173311807149034 118.91396778427838 -54.416748046875 118.031982421875 C-56.306392368598296 116.69183158095677 -58.212274463558 115.37816106271987 -60.123046875 114.068359375 C-61.34738317252558 113.22023352909378 -62.570725425206504 112.37067053057069 -63.79296875 111.51953125 C-64.35453170776367 111.12973587036129 -64.91609466552734 110.73994049072269 -65.49467468261719 110.33833312988281 C-69.15160168127045 107.73777130504072 -71.88118593440578 105.11881406559428 -75.125 101.875 C-68.195 97.255 -61.265 92.63499999999999 -54.125 87.875 C-56.777522935779814 74.61238532110093 -56.777522935779814 74.61238532110093 -61.125 69.875 C-66.78824457491876 67.86284069687372 -72.97852814228295 67.93380234465121 -78.93017578125 67.9658203125 C-81.12500000000001 67.875 -81.12500000000001 67.875 -85.125 66.875 C-85.125 57.96500000000003 -85.125 49.05500000000001 -85.125 39.875 C-82.815 39.58625000000001 -80.505 39.297500000000014 -78.125 39 C-77.345439453125 38.89639160156253 -76.56587890624999 38.792783203125 -75.7626953125 38.68603515625 C-72.14616290947002 38.208460820430275 -68.56666416521873 37.81880299922409 -64.921875 37.6484375 C-53.83875081445957 36.987352837836966 -48.81701368704114 33.426695029400264 -41.125 25.875 C-40.13499999999999 25.214999999999975 -39.14500000000001 24.555000000000007 -38.125 23.875 C-39.62849377257254 20.207136071306536 -41.76228792223979 18.185896066651594 -44.75 15.625 C-45.567265625000005 14.918593750000014 -46.38453125000001 14.212187500000027 -47.2265625 13.484375 C-47.85304687499999 12.953281249999975 -48.47953125000001 12.422187500000007 -49.125 11.875 C-46.420432543569504 9.170432543569518 -43.24093724199898 8.165425048560223 -39.73828125 6.80078125 C-39.00304733276367 6.5126908874511855 -38.26781341552734 6.224600524902371 -37.51029968261719 5.9277801513671875 C-35.95214146244601 5.3204723209628355 -34.39276234031337 4.716289095017373 -32.832275390625 4.114990234375 C-30.458041600236783 3.195455707951851 -28.093546992663676 2.253451757529774 -25.728515625 1.310546875 C-24.211485763814963 0.7225418724991073 -22.69392323967523 0.13590891288913554 -21.17578125 -0.44921875 C-20.474475860595703 -0.7324650573730196 -19.773170471191406 -1.015711364746096 -19.050613403320313 -1.3075408935546875 C-12.123005313599322 -3.9181893198409625 -6.834780309227142 -2.4996766859833315 0 0 Z " fill="#676666" transform="translate(150.125,424.125)"/>
<path d="M0 0 C2 1 2 1 2.71435546875 2.95166015625 C2.929790039062482 3.805502929687492 3.1452246093749636 4.6593457031250125 3.3671875 5.5390625 C3.611223144531209 6.501186523437497 3.855258789062532 7.463310546874993 4.106689453125 8.45458984375 C4.360231933593752 9.500825195312501 4.6137744140625045 10.547060546875002 4.875 11.625 C5.006605224609359 12.160363769531244 5.006605224609359 12.160363769531244 5.672607421875 14.86962890625 C10.3411941714852 34.32183625418344 13.232823028288635 53.49115703713272 13.25 73.5 C13.250674743652326 74.2086520385742 13.251349487304651 74.91730407714846 13.252044677734375 75.64743041992188 C13.197775309031954 111.59353292504136 0.09079001698273714 140.6632218455959 -25 166 C-27.56378494466071 168.47764987735002 -30.234541275228025 170.75076023718543 -33 173 C-34.11486292275754 173.92674709459993 -35.229415363645785 174.85386775296791 -36.34375 175.78125 C-43.72169607767762 181.8806935307295 -51.25088114962341 187.73242583209833 -58.9375 193.4375 C-94.48885761754127 219.86614233460267 -123.88520293260669 248.16133898403723 -136 292 C-136.33 292 -136.66 292 -137 292 C-137.6490539184133 253.1732617523527 -137.6490539184133 253.1732617523527 -134 234 C-133.86078125 233.25814453124997 -133.7215625 232.5162890625 -133.578125 231.751953125 C-128.27381440726566 204.81293127208534 -112.60868953103068 183.42694396431 -94 164 C-93.32839843750003 163.29875000000004 -92.656796875 162.59749999999997 -91.96484375 161.875 C-83.87860189368178 153.62298097578457 -74.8121670598415 146.47161863607795 -65.671875 139.43359375 C-57.744467341198856 133.30957218589833 -50.26172265414874 126.89916968756864 -43 120 C-42.31808593749997 119.38253906249997 -41.636171875 118.765078125 -40.93359375 118.12890625 C-7.0098729133083 86.32984433836208 -1.8466447241061132 43.93070606820794 0 0 Z " fill="#F3D230" transform="translate(363,155)"/>
<path d="M0 0 C-0.5594531250000045 0.6226171874999977 -1.118906250000009 1.2452343749999955 -1.6953125 1.88671875 C-29.666971292022424 34.13057623212228 -50.16566504208416 76.06045324248646 -50.1875 119.25 C-50.19362304687499 119.87970703125 -50.19362304687499 119.87970703125 -50.224609375 123.06640625 C-50.23515698536019 129.83797210124038 -49.8684573542468 136.11529929635208 -48.333251953125 142.7216796875 C-47.97932790995611 145.141327431714 -48.242949571904006 146.69538609285087 -49 149 C-63.1527078025602 133.04603847711394 -68.95029476986286 114.38669717477023 -68.14501953125 93.27734375 C-67.60534400928842 84.80243925697346 -66.30584096874927 76.3847063662513 -65 68 C-64.806640625 66.744453125 -64.61328125 65.48890625000001 -64.4140625 64.1953125 C-60.25303831383039 42.52556316683092 -44.53758543578488 22.972636825322127 -27.0625 10.125 C-7.820184641208556 -2.5136307775313185 -7.820184641208556 -2.5136307775313185 0 0 Z " fill="#F3D230" transform="translate(229,265)"/>
</svg>
